<?xml version="1.0" encoding="UTF-8" standalone="no"?>
<svg
   width="111.31246"
   height="20"
   role="img"
   aria-label="made by: aleksanderpalamar"
   version="1.1"
   id="svg125"
   sodipodi:docname="developerInAureliolk.svg"
   inkscape:version="1.2 (dc2aedaf03, 2022-05-15)"
   xml:space="preserve"
   xmlns:inkscape="http://www.inkscape.org/namespaces/inkscape"
   xmlns:sodipodi="http://sodipodi.sourceforge.net/DTD/sodipodi-0.dtd"
   xmlns="http://www.w3.org/2000/svg"
   xmlns:svg="http://www.w3.org/2000/svg"
   xmlns:rdf="http://www.w3.org/1999/02/22-rdf-syntax-ns#"
   xmlns:cc="http://creativecommons.org/ns#"
   xmlns:dc="http://purl.org/dc/elements/1.1/"><defs
     id="defs129"><linearGradient
       id="linearGradient1726"
       inkscape:swatch="solid"><stop
         style="stop-color:#0073b1;stop-opacity:1;"
         offset="0"
         id="stop1724" /></linearGradient></defs><sodipodi:namedview
     id="namedview127"
     pagecolor="#ffffff"
     bordercolor="#000000"
     borderopacity="0.25"
     inkscape:showpageshadow="2"
     inkscape:pageopacity="0.0"
     inkscape:pagecheckerboard="0"
     inkscape:deskcolor="#d1d1d1"
     showgrid="false"
     inkscape:zoom="4.5356764"
     inkscape:cx="41.228691"
     inkscape:cy="17.417468"
     inkscape:window-width="1366"
     inkscape:window-height="719"
     inkscape:window-x="0"
     inkscape:window-y="20"
     inkscape:window-maximized="1"
     inkscape:current-layer="svg125" /><title
     id="title111">Developed By:</title><g
     shape-rendering="crispEdges"
     id="g117"
     transform="matrix(1.1804251,0,0,1,-127.73827,-45.932522)"
     style="fill:#1a1a1a"><rect
       x="108.21378"
       width="94.298622"
       height="20"
       fill="#7519c1"
       id="rect115"
       style="fill:#1a1a1a;fill-opacity:1;stroke-width:0.905534"
       y="45.932522" /><text
       xml:space="preserve"
       style="font-size:16px;font-family:'Neon Zone';-inkscape-font-specification:'Neon Zone';fill:#ffffff;fill-opacity:1"
       x="24.149925"
       y="14.642928"
       id="text2858-3"
       transform="matrix(0.84715244,0,0,1,108.21379,45.932522)"><tspan
         sodipodi:role="line"
         id="tspan2856-6"
         x="24.149925"
         y="14.642928"
         style="font-size:16px;fill:#ffffff;fill-opacity:1">aureliolk</tspan></text></g><metadata
     id="metadata3073"><rdf:RDF><cc:Work
         rdf:about=""><dc:title>Developed By:</dc:title></cc:Work></rdf:RDF></metadata><g
     id="g3797"
     transform="matrix(1.1219588,0,0,1.1219588,-30.08248,27.041363)"><path
       d="m 40.839119,-22.322786 h -8.093963 c -1.59625,0 -2.89071,1.332187 -2.89071,2.974959 v 8.329884 c 0,1.6427731 1.29446,2.9749591 2.89071,2.9749591 h 8.093963 c 1.59682,0 2.8907,-1.332186 2.8907,-2.9749591 v -8.329884 c 0,-1.642772 -1.29388,-2.974959 -2.8907,-2.974959 z"
       id="path3739"
       style="fill:#f9f9f9;fill-opacity:1;stroke:none;stroke-width:0.586506;stroke-opacity:1"
       sodipodi:nodetypes="sssssssss" /><path
       d="m 40.908766,-22.339418 h -8.15678 c -1.608638,0 -2.913144,1.339297 -2.913144,2.990837 v 8.374344 c 0,1.6515404 1.304506,2.9908363 2.913144,2.9908363 h 8.15678 c 1.609213,0 2.913134,-1.3392959 2.913134,-2.9908363 v -8.374344 c 0,-1.65154 -1.303921,-2.990837 -2.913134,-2.990837 z m -6.408899,11.365181 h -1.747881 v -6.579842 h 1.747881 z m -0.873941,-7.338317 c -0.562824,0 -1.019602,-0.472553 -1.019602,-1.055168 0,-0.582615 0.456778,-1.055167 1.019602,-1.055167 0.562815,0 1.019592,0.472552 1.019592,1.055167 0,0.582615 -0.456193,1.055168 -1.019592,1.055168 z m 7.865467,7.338317 h -1.747882 v -3.352131 c 0,-2.014627 -2.33051,-1.862094 -2.33051,0 v 3.352131 H 35.66512 v -6.579842 h 1.747881 v 1.055766 c 0.813347,-1.546861 4.078392,-1.661111 4.078392,1.481062 z"
       id="path335"
       style="fill:#0073b1;fill-opacity:1;stroke:none;stroke-width:0.590347;stroke-opacity:1" /></g></svg>
