<?xml version="1.0" encoding="UTF-8" standalone="no"?>
<svg
   width="111.31246"
   height="20"
   role="img"
   aria-label="made by: aleksanderpalamar"
   version="1.1"
   id="svg125"
   sodipodi:docname="developerInstagramAureliolk.svg"
   inkscape:version="1.2 (dc2aedaf03, 2022-05-15)"
   xml:space="preserve"
   xmlns:inkscape="http://www.inkscape.org/namespaces/inkscape"
   xmlns:sodipodi="http://sodipodi.sourceforge.net/DTD/sodipodi-0.dtd"
   xmlns:xlink="http://www.w3.org/1999/xlink"
   xmlns="http://www.w3.org/2000/svg"
   xmlns:svg="http://www.w3.org/2000/svg"
   xmlns:rdf="http://www.w3.org/1999/02/22-rdf-syntax-ns#"
   xmlns:cc="http://creativecommons.org/ns#"
   xmlns:dc="http://purl.org/dc/elements/1.1/"><defs
     id="defs129"><linearGradient
       inkscape:collect="always"
       id="linearGradient4105"><stop
         style="stop-color:#d45500;stop-opacity:1;"
         offset="0"
         id="stop4101" /><stop
         style="stop-color:#d45500;stop-opacity:0;"
         offset="1"
         id="stop4103" /></linearGradient><linearGradient
       id="linearGradient4081"><stop
         style="stop-color:#d45500;stop-opacity:1;"
         offset="0"
         id="stop4079" /></linearGradient><linearGradient
       id="linearGradient1726"
       inkscape:swatch="solid"><stop
         style="stop-color:#0073b1;stop-opacity:1;"
         offset="0"
         id="stop1724" /></linearGradient><radialGradient
       inkscape:collect="always"
       xlink:href="#linearGradient4105"
       id="radialGradient4107"
       cx="36.792132"
       cy="-15.182885"
       fx="36.792132"
       fy="-15.182885"
       r="6.9376865"
       gradientTransform="matrix(1,0,0,1.0291473,0,0.44253949)"
       gradientUnits="userSpaceOnUse" /></defs><sodipodi:namedview
     id="namedview127"
     pagecolor="#ffffff"
     bordercolor="#000000"
     borderopacity="0.25"
     inkscape:showpageshadow="2"
     inkscape:pageopacity="0.0"
     inkscape:pagecheckerboard="0"
     inkscape:deskcolor="#d1d1d1"
     showgrid="false"
     inkscape:zoom="4.6708479"
     inkscape:cx="63.371791"
     inkscape:cy="19.910732"
     inkscape:window-width="1366"
     inkscape:window-height="719"
     inkscape:window-x="0"
     inkscape:window-y="20"
     inkscape:window-maximized="1"
     inkscape:current-layer="g3797" /><title
     id="title111">Developed By:</title><g
     shape-rendering="crispEdges"
     id="g117"
     transform="matrix(1.1804251,0,0,1,-127.73827,-45.932522)"
     style="fill:#1a1a1a"><rect
       x="108.21378"
       width="94.298622"
       height="20"
       fill="#7519c1"
       id="rect115"
       style="fill:#1a1a1a;fill-opacity:1;stroke-width:0.905534"
       y="45.932522" /><text
       xml:space="preserve"
       style="font-size:16px;font-family:'Neon Zone';-inkscape-font-specification:'Neon Zone';fill:#ffffff;fill-opacity:1"
       x="24.149925"
       y="14.642928"
       id="text2858-3"
       transform="matrix(0.84715244,0,0,1,108.21379,45.932522)"><tspan
         sodipodi:role="line"
         id="tspan2856-6"
         x="24.149925"
         y="14.642928"
         style="font-size:16px;fill:#ffffff;fill-opacity:1">aureliolk</tspan></text></g><metadata
     id="metadata3073"><rdf:RDF><cc:Work
         rdf:about=""><dc:title>Developed By:</dc:title></cc:Work></rdf:RDF></metadata><g
     id="g3797"
     transform="matrix(1.1219588,0,0,1.1219588,-30.08248,27.041363)"><path
       d="m 40.839119,-22.322786 h -8.093963 c -1.59625,0 -2.89071,1.332187 -2.89071,2.974959 v 8.329884 c 0,1.6427731 1.29446,2.9749591 2.89071,2.9749591 h 8.093963 c 1.59682,0 2.8907,-1.332186 2.8907,-2.9749591 v -8.329884 c 0,-1.642772 -1.29388,-2.974959 -2.8907,-2.974959 z"
       id="path3739"
       style="fill:url(#radialGradient4107);fill-opacity:1;stroke:none;stroke-width:0.586506;stroke-opacity:1"
       sodipodi:nodetypes="sssssssss" /><path
       d="m 11.135949,3.9280498 c 1.973796,0 2.207892,0.00739 2.987799,0.043122 2.003366,0.091174 2.939132,1.0417255 3.030306,3.0303061 0.03573,0.7792919 0.0425,1.0133875 0.0425,2.987183 0,1.9744131 -0.0074,2.2078921 -0.0425,2.9871841 -0.09179,1.986732 -1.025092,2.939131 -3.030306,3.030305 -0.779907,0.03573 -1.012771,0.04312 -2.987799,0.04312 -1.9737951,0 -2.2078911,-0.0074 -2.987183,-0.04312 -2.0082939,-0.09179 -2.939132,-1.046652 -3.0303061,-3.030921 -0.03573,-0.779291 -0.043122,-1.012771 -0.043122,-2.9871841 0,-1.9737955 0.00801,-2.2072751 0.043122,-2.9871831 0.09179,-1.987964 1.0250924,-2.9391315 3.0303061,-3.0303056 0.7799079,-0.035114 1.0133879,-0.042507 2.987183,-0.042506 z m 0,-1.3324969 c -2.0076781,0 -2.2590221,0.00862 -3.0475551,0.044355 -2.6847069,0.123208 -4.1767585,1.6127953 -4.2999667,4.2999666 -0.036347,0.7891486 -0.044971,1.0404933 -0.044971,3.0481714 0,2.0076781 0.00862,2.2596391 0.044355,3.0481711 0.1232083,2.684707 1.6127956,4.176759 4.2999668,4.299967 0.7891489,0.03573 1.0404929,0.04436 3.048171,0.04436 2.007678,0 2.259639,-0.0086 3.048171,-0.04436 2.682243,-0.123208 4.177991,-1.612795 4.299351,-4.299967 0.03634,-0.788532 0.04497,-1.040493 0.04497,-3.0481711 0,-2.0076781 -0.0086,-2.2590228 -0.04436,-3.0475554 C 18.363343,4.2582478 16.871908,2.7637321 14.184736,2.6405239 13.395588,2.6041775 13.143627,2.5955529 11.135949,2.5955529 Z m 0,3.5964479 c -2.0963881,0 -3.7960452,1.6996573 -3.7960452,3.7960451 0,2.0963881 1.6996571,3.7966611 3.7960452,3.7966611 2.096388,0 3.796045,-1.699657 3.796045,-3.7966611 0,-2.0963878 -1.699657,-3.7960451 -3.796045,-3.7960451 z m 0,6.2602102 c -1.3608351,0 -2.4641641,-1.102714 -2.4641641,-2.4641651 0,-1.360835 1.103329,-2.4641643 2.4641641,-2.4641643 1.360835,0 2.464165,1.1033293 2.464165,2.4641643 0,1.3614511 -1.10333,2.4641651 -2.464165,2.4641651 z m 3.94636,-7.2970074 c -0.490369,0 -0.887716,0.3973465 -0.887716,0.8870992 0,0.4897526 0.397347,0.8870992 0.887716,0.8870992 0.489752,0 0.886482,-0.3973466 0.886482,-0.8870992 0,-0.4897527 -0.39673,-0.8870992 -0.886482,-0.8870992 z"
       id="path3905"
       style="stroke-width:0.616041;fill:#f9f9f9"
       transform="matrix(0.89129833,0,0,0.89129833,26.812464,-24.101922)" /></g></svg>
