<svg
      xmlns="http://www.w3.org/2000/svg"
      width="237"
      height="34"
      fill="none"
      version="1.1"
      viewBox="0 0 237 34"
      xmlSpace="preserve"
    >
      <path
        fill="#c4c4cc"
        d="M159.746 23.65h-2.283v4.53h-2.048V16.4h4.143c1.36 0 2.408.307 3.149.916.74.61 1.108 1.493 1.108 2.648 0 .787-.19 1.449-.57 1.98-.38.532-.911.94-1.59 1.226l2.646 4.906v.106h-2.194l-2.364-4.531zM157.463 22h2.105c.691 0 1.229-.175 1.619-.523.39-.348.582-.824.582-1.43 0-.603-.18-1.12-.538-1.465-.358-.345-.893-.523-1.606-.533h-2.162v3.95zm16.839.923h-4.839v3.625h5.656v1.634h-7.704V16.4h7.648v1.65h-5.6v3.253h4.839zm10.737 2.517h-4.565l-.955 2.744h-2.127l4.452-11.783h1.836l4.459 11.783h-2.137zm-3.99-1.65h3.415l-1.707-4.89zm18.903.557c-.119 1.256-.583 2.238-1.392 2.94-.81.704-1.885 1.057-3.228 1.057-.938 0-1.764-.222-2.48-.668-.715-.445-1.266-1.08-1.656-1.898-.387-.82-.589-1.772-.607-2.858v-1.1c0-1.11.198-2.09.59-2.937.392-.846.96-1.5 1.695-1.96.736-.458 1.587-.688 2.554-.688 1.301 0 2.347.353 3.139 1.057.792.703 1.254 1.7 1.385 2.99h-2.039c-.096-.846-.343-1.458-.74-1.833-.397-.375-.977-.563-1.745-.563-.89 0-1.574.326-2.05.977-.479.652-.721 1.605-.733 2.863v1.044c0 1.273.227 2.245.683 2.917.457.668 1.123 1.004 2.004 1.004.805 0 1.409-.18 1.814-.543.405-.363.661-.962.77-1.804h2.038zm11.765-6.295h-3.674v10.132h-2.031V18.052h-3.642V16.4h9.347v1.65zm6.278-1.651h2.039v8.262c0 1.127-.353 2.023-1.057 2.687-.703.664-1.633.995-2.788.995-1.229 0-2.179-.311-2.848-.93-.669-.62-1.004-1.484-1.004-2.59h2.038c0 .627.156 1.096.467 1.412.31.316.76.474 1.347.474.55 0 .989-.183 1.315-.545.326-.366.489-.867.489-1.51V16.4h.002zm12.193 8.748c0-.518-.183-.918-.545-1.197-.363-.28-1.022-.563-1.972-.85-.95-.285-1.705-.603-2.265-.954-1.074-.674-1.612-1.555-1.612-2.638 0-.95.388-1.732 1.163-2.347.774-.614 1.779-.922 3.015-.922.819 0 1.55.15 2.194.454a3.597 3.597 0 011.513 1.29c.367.558.55 1.177.55 1.858h-2.038c0-.614-.193-1.095-.578-1.443-.385-.348-.938-.524-1.656-.524-.668 0-1.189.144-1.557.43-.37.286-.555.686-.555 1.197 0 .432.2.792.6 1.08.399.29 1.056.57 1.974.842.918.27 1.653.582 2.208.93.556.348.963.748 1.222 1.197.259.452.387.977.387 1.582 0 .982-.375 1.762-1.127 2.342-.753.58-1.775.87-3.063.87a5.755 5.755 0 01-2.352-.473c-.715-.316-1.27-.75-1.668-1.308-.397-.555-.594-1.204-.594-1.942h2.048c0 .669.222 1.187.664 1.555.441.367 1.075.55 1.902.55.713 0 1.246-.143 1.607-.432.357-.288.538-.671.538-1.145z"
      ></path>
      <path
        fill="#00b37e"
        strokeWidth="0.887"
        d="M150.271 33.146h-4.958V7.496h4.958z"
      ></path>
      <g
        fill="#fff"
        fillOpacity="1"
        transform="matrix(.61741 0 0 .63219 -96.031 -96.595)"
      >
        <g fill="#fff" fillOpacity="1" transform="translate(165.45 51.561)">
          <g
            strokeWidth="1.046"
            transform="matrix(1.4592 0 0 1.61602 107.51 -93.785)"
          >
            <path d="M-42.605 124.208l-4.778-.541a.502.502 0 00-.34.065l-2.035 2.035a.407.407 0 00-.113.454c.057.152-.113.282-.31.26l-1.669-.281c-.254-.044-.537.02-.706.194l-6.615 6.494c-.114.13-.34.173-.538.109l-2.516-.866a.821.821 0 00-.678.043l-1.272.671a.89.89 0 01-.707.044l-.622-.238c-.396-.152-.876.02-.99.346l-.452 1.537c-.113.368.085.736.51.93l.96.455 3.082 1.45 1.498.715c.424.194.961.151 1.329-.087l2.516-1.688c.198-.13.509-.173.735-.065l.763.303a.793.793 0 00.763-.087l1.272-.909c.198-.151.51-.173.735-.087l1.895.672c.282.108.621.043.82-.152l.876-.866 6.643-6.515c.311-.303.113-.758-.396-.844l-1.47-.26c-.31-.044-.452-.347-.226-.52l2.29-2.186c.226-.26.085-.541-.255-.585z"></path>
            <path d="M-64.517 137.325c-.141-.065-.283.043-.226.151l.707 1.429a.434.434 0 01.028.325l-.622 1.861c-.028.13.028.26.141.325l1.781 1.06c.17.087.396.087.537-.02l1.866-1.256c.113-.065.255-.108.368-.13l2.12-.173c.141-.021.198-.173.056-.238z"></path>
            <path d="M-65.139 142.132a.568.568 0 00-.424-.043l-1.498.563c-.085.02-.141.086-.198.151l-3.194 6.04v.043c.028.021.056.043.113.043l.735-.216h.084c.029.021.057.065.029.086l-2.29 2.88c-.057.064.056.13.113.064l8.283-6.364a.387.387 0 00.141-.216l.17-1.645a.325.325 0 00-.142-.26z"></path>
          </g>
          <text
            xmlSpace="preserve"
            style={{}}
            x="32.131"
            y="148.521"
            strokeWidth="0.265"
            fontFamily="Neon Zone"
            fontSize="35.631"
          >
            <tspan
              x="32.131"
              y="148.521"
              fill="#fff"
              fillOpacity="1"
              strokeWidth="0.265"
            >
              acos lab
            </tspan>
          </text>
        </g>
      </g>
    </svg>