<svg
      xmlns="http://www.w3.org/2000/svg"
      version="1.1"
      viewBox="0 0 314.709 45.946"
      className="fill-white w-48 h-6 hover:fill-green-500 transition-all"
    >
      <g transform="translate(-2.744 -106.054)">
        <g >
          <text
            xmlSpace="preserve"
            style={{}}
            x="32.131"
            y="148.521"
            strokeWidth="0.265"
            fontFamily="Neon Zone"
            fontSize="35.631"
          >
            <tspan x="32.131" y="148.521" strokeWidth="0.265">
              acos services
            </tspan>
          </text>
          <g
            fillOpacity="1"
            strokeWidth="1.046"
            transform="matrix(1.4592 0 0 1.61602 107.51 -93.785)"
          >
            <path d="M-42.605 124.208l-4.778-.541a.502.502 0 00-.34.065l-2.035 2.035a.407.407 0 00-.113.454c.057.152-.113.282-.31.26l-1.669-.281c-.254-.044-.537.02-.706.194l-6.615 6.494c-.114.13-.34.173-.538.109l-2.516-.866a.821.821 0 00-.678.043l-1.272.671a.89.89 0 01-.707.044l-.622-.238c-.396-.152-.876.02-.99.346l-.452 1.537c-.113.368.085.736.51.93l.96.455 3.082 1.45 1.498.715c.424.194.961.151 1.329-.087l2.516-1.688c.198-.13.509-.173.735-.065l.763.303a.793.793 0 00.763-.087l1.272-.909c.198-.151.51-.173.735-.087l1.895.672c.282.108.621.043.82-.152l.876-.866 6.643-6.515c.311-.303.113-.758-.396-.844l-1.47-.26c-.31-.044-.452-.347-.226-.52l2.29-2.186c.226-.26.085-.541-.255-.585z"></path>
            <path d="M-64.517 137.325c-.141-.065-.283.043-.226.151l.707 1.429a.434.434 0 01.028.325l-.622 1.861c-.028.13.028.26.141.325l1.781 1.06c.17.087.396.087.537-.02l1.866-1.256c.113-.065.255-.108.368-.13l2.12-.173c.141-.021.198-.173.056-.238z"></path>
            <path d="M-65.139 142.132a.568.568 0 00-.424-.043l-1.498.563c-.085.02-.141.086-.198.151l-3.194 6.04v.043c.028.021.056.043.113.043l.735-.216h.084c.029.021.057.065.029.086l-2.29 2.88c-.057.064.056.13.113.064l8.283-6.364a.387.387 0 00.141-.216l.17-1.645a.325.325 0 00-.142-.26z"></path>
          </g>
        </g>
      </g>
    </svg>