<svg
      xmlns="http://www.w3.org/2000/svg"
      width="100%"
      height="575"
      fill="none"
      viewBox="0 0 654 575"
    >
      <path
        fill="url(#paint0_linear_24_689)"
        d="M345.785 520.527c-5.791-5.132-11.891-10.308-17.683-16.015-4.641 4.292-8.973 8.318-13.571 12.299-57.336 49.461-116.441 70.077-151.452 50.036-33.907-19.156-44.561-75.739-30.989-146.966a334.996 334.996 0 015.216-23.138c-6.1-1.814-11.891-3.451-17.683-5.397C47.478 366.704 0 326.667 0 286.629c0-40.037 44.295-76.049 113.523-100.071 7.736-2.566 15.914-5.132 24.358-7.432-1.945-7.433-3.448-14.6-4.907-21.501-14.5-72.289-4.377-130.022 29.839-149.444 35.631-20.571 94.691 1.416 154.061 53.177 3.448 3.141 6.94 6.592 10.698 9.998 5.482-5.131 10.698-10.308 16.224-14.864 56.142-48.4 112.02-68.617 146.236-49.151 35.63 19.996 46.063 81.756 30.149 158.114-.884 4.867-1.945 9.468-3.183 14.334 7.25 1.991 14.456 4.291 21.131 6.592 70.686 24.022 116.44 61.45 115.866 100.912 0 40.303-48.937 80.075-124 104.628-4.067 1.15-8.09 2.566-12.157 3.716 1.724 5.707 2.873 11.414 4.067 17.165 15.074 74.059 3.448 134.668-31.564 154.664-9.195 5.132-19.76 7.742-30.502 7.521-32.095-.044-72.853-19.598-113.965-54.46h-.089zm56.762-104.937c-16.622 23.933-34.924 46.85-54.728 68.616 5.481 5.397 11.007 10.308 16.489 14.865 47.787 40.612 91.817 55.742 112.373 44.019 6.278-4.999 11.406-11.149 15.119-18.006 3.669-6.857 5.835-14.378 6.322-22.032 4.199-28.358 3.006-57.202-3.493-85.206-.884-5.132-1.945-10.308-3.448-15.706-29.176 6.327-58.795 10.795-88.634 13.405v.045zm-242.695 9.157c-11.848 60.919-3.183 106.354 17.417 118.077 7.294 2.832 15.207 4.115 23.12 3.805 7.913-.31 15.649-2.212 22.678-5.618 27.32-10.618 52.164-25.969 73.295-45.17 4.332-3.45 8.399-7.432 12.732-11.414-20.247-21.766-39.035-44.682-56.187-68.616a697.11 697.11 0 01-88.325-12.565c-1.813 7.477-3.272 14.6-4.686 21.501h-.044zm168.56 40.038c12.731-14.025 25.463-29.464 38.239-46.585-12.732.575-26.082.84-39.388.84-13.307 0-25.773-.265-38.239-.84 13.041 16.855 26.082 32.56 39.388 46.585zm-60.829-279.023c-11.007 15.705-21.705 32.251-31.873 49.77-10.123 17.165-19.362 34.596-27.806 51.982 8.709 17.165 17.948 34.596 28.116 52.336 10.123 17.165 20.865 34.065 31.873 50.036 19.097 1.15 39.123 1.814 59.37 1.814 20.246 0 40.537-.575 59.944-1.991 10.433-15.705 21.131-32.605 31.298-50.036a856.437 856.437 0 0028.116-52.292c-8.4-16.855-17.948-34.286-28.116-51.761-10.123-17.475-20.865-34.065-31.563-49.77-19.363-1.416-39.389-2.3-59.679-2.3-20.291 0-40.273.84-59.68 2.256v-.044zm-95.575 191.25c19.893 4.203 40.008 7.344 60.254 9.467-6.94-10.838-13.881-21.721-20.556-33.18-6.366-11.148-12.731-22.297-18.523-33.445-8.399 19.421-15.339 38.621-21.13 57.158h-.045zm270.767-24.022c-6.675 11.414-13.351 22.297-19.982 32.87 20.556-2.389 40.98-5.795 61.094-10.308-6.277-19.289-13.66-38.268-22.015-56.893-6.1 11.414-12.466 22.872-19.141 34.286l.044.045zM122.497 212.881c-59.06 20.572-94.691 50.566-94.691 74.058 1.105 7.565 3.846 14.82 8.046 21.412 4.155 6.592 9.725 12.343 16.268 16.9 22.59 17.563 48.539 31.145 76.477 40.037 5.217 1.814 10.698 3.141 16.224 4.867 8.886-28.137 19.628-55.699 32.139-82.641-12.555-26.456-23.165-53.663-31.873-81.402a244.667 244.667 0 00-22.59 6.769zm355.378 74.058c12.864 26.588 23.872 53.885 32.934 81.756 3.758-1.15 7.559-2.301 11.007-3.451 64.587-21.147 104.638-53.442 104.859-78.615 0-23.447-37.045-53.752-97.609-74.323-6.1-1.991-12.731-3.982-19.362-6.017-8.753 27.473-19.407 54.415-31.829 80.65zm-35.321-65.741c6.675 11.414 13.041 22.607 18.832 33.755 8.045-18.227 14.986-36.852 20.865-55.742a600.53 600.53 0 00-59.679-10.308c6.941 10.573 13.616 21.146 19.982 32.295zm-270.236-22.253c5.791 18.316 12.731 36.896 20.865 56.008 5.792-11.148 12.157-22.297 18.523-33.445 6.366-11.149 13.041-21.988 19.982-32.605a647.807 647.807 0 00-59.37 9.998v.044zM362.009 77.417c-4.907 4.292-9.858 8.848-14.765 13.45 20.114 21.5 38.592 44.24 55.303 68.085 29.486 2.654 58.706 7.211 87.485 13.714 1.149-4.291 1.945-8.582 2.917-12.873 13.572-65.741 5.217-116.087-16.798-128.651-4.819-2.522-10.3-3.76-15.87-3.584-23.651-.088-59.989 16.944-98.272 49.77v.09zM176.65 31.894c-20.556 11.724-28.69 58.618-16.489 120.378 1.459 6.591 2.918 13.139 4.642 19.996 28.823-6.282 57.999-10.75 87.485-13.449A612.68 612.68 0 01307.9 90.734c-3.183-3.141-6.675-6.017-9.858-8.893-40.317-35.26-79.042-53.84-104.372-53.84-5.968-.177-11.848 1.15-16.976 3.893h-.044zM366.076 156.52a536.652 536.652 0 00-38.592-46.01c-13.041 13.98-26.082 29.464-38.77 46.01 12.732-.575 25.463-.841 38.504-.841 13.041 0 26.082.221 38.858.841zm-96.724 131.526a52.21 52.21 0 013.802-21.545c2.785-6.902 7.028-13.184 12.466-18.537 5.437-5.353 11.98-9.688 19.186-12.697 7.249-3.008 15.074-4.689 22.987-4.955 16.047.487 31.21 6.858 42.173 17.697 10.964 10.838 16.843 25.216 16.357 40.081.53 14.821-5.349 29.243-16.313 40.126-10.963 10.839-26.126 17.21-42.173 17.696-7.957-.221-15.782-1.902-23.031-4.955-7.25-3.052-13.793-7.344-19.186-12.741-5.438-5.353-9.681-11.679-12.466-18.581a52.414 52.414 0 01-3.802-21.589z"
        opacity="0.05"
      ></path>
      <defs>
        <linearGradient
          id="paint0_linear_24_689"
          x1="327"
          x2="327"
          y1="0"
          y2="575"
          gradientUnits="userSpaceOnUse"
        >
          <stop stopColor="#81D8F7"></stop>
          <stop offset="1" stopColor="#81D8F7" stopOpacity="0"></stop>
        </linearGradient>
      </defs>
    </svg>