<?xml version="1.0" encoding="UTF-8" standalone="no"?>
<svg
   height="152.52087"
   preserveAspectRatio="xMidYMid"
   width="1082.1636"
   viewBox="-1.871 -0.407 112.87575 15.730942"
   version="1.1"
   id="svg86"
   sodipodi:docname="technologyUtilits.svg"
   xml:space="preserve"
   inkscape:version="1.2 (dc2aedaf03, 2022-05-15)"
   xmlns:inkscape="http://www.inkscape.org/namespaces/inkscape"
   xmlns:sodipodi="http://sodipodi.sourceforge.net/DTD/sodipodi-0.dtd"
   xmlns="http://www.w3.org/2000/svg"
   xmlns:svg="http://www.w3.org/2000/svg"><defs
     id="defs90"><meshgradient
       inkscape:collect="always"
       id="meshgradient4391"
       gradientUnits="userSpaceOnUse"
       x="55.913815"
       y="29.19883"><meshrow
         id="meshrow4393"><meshpatch
           id="meshpatch4395"><stop
             path="c 381.306,0  762.611,0  1143.92,0"
             style="stop-color:#ffffff;stop-opacity:1"
             id="stop4397" /><stop
             path="c 0,381.267  0,762.534  0,1143.8"
             style="stop-color:#000000;stop-opacity:1"
             id="stop4399" /><stop
             path="c -381.306,0  -762.611,0  -1143.92,0"
             style="stop-color:#ffffff;stop-opacity:1"
             id="stop4401" /><stop
             path="c 0,-381.267  0,-762.534  0,-1143.8"
             style="stop-color:#000000;stop-opacity:1"
             id="stop4403" /></meshpatch></meshrow></meshgradient><meshgradient
       inkscape:collect="always"
       id="meshgradient4405"
       gradientUnits="userSpaceOnUse"
       x="213.33299"
       y="0"><meshrow
         id="meshrow4407"><meshpatch
           id="meshpatch4409"><stop
             path="c 194.019,0  388.039,0  582.058,0"
             style="stop-color:#ffffff;stop-opacity:1"
             id="stop4411" /><stop
             path="c 0,333.333  0,666.667  0,1000"
             style="stop-color:#800080;stop-opacity:1"
             id="stop4413" /><stop
             path="c -194.019,0  -388.039,0  -582.058,0"
             style="stop-color:#ffffff;stop-opacity:1"
             id="stop4415" /><stop
             path="c 0,-333.333  0,-666.667  0,-1000"
             style="stop-color:#800080;stop-opacity:1"
             id="stop4417" /></meshpatch></meshrow></meshgradient><meshgradient
       inkscape:collect="always"
       id="meshgradient4419"
       gradientUnits="userSpaceOnUse"
       x="25.739933"
       y="4.1999998"><meshrow
         id="meshrow4421"><meshpatch
           id="meshpatch4423"><stop
             path="c 116.173,0  232.347,0  348.52,0"
             style="stop-color:#ffffff;stop-opacity:1"
             id="stop4425" /><stop
             path="c 0,130.533  0,261.067  0,391.6"
             style="stop-color:#e535ab;stop-opacity:1"
             id="stop4427" /><stop
             path="c -116.173,0  -232.347,0  -348.52,0"
             style="stop-color:#ffffff;stop-opacity:1"
             id="stop4429" /><stop
             path="c 0,-130.533  0,-261.067  0,-391.6"
             style="stop-color:#e535ab;stop-opacity:1"
             id="stop4431" /></meshpatch></meshrow></meshgradient><meshgradient
       inkscape:collect="always"
       id="meshgradient4433"
       gradientUnits="userSpaceOnUse"
       x="40.729206"
       y="4.8000093"
       gradientTransform="translate(-1.8713227,-2.4580604)"><meshrow
         id="meshrow4435"><meshpatch
           id="meshpatch4437"><stop
             path="c 5.21528,0  10.4306,0  15.6458,0"
             style="stop-color:#ffffff;stop-opacity:1"
             id="stop4439" /><stop
             path="c 0,3.12918  0,6.25836  0,9.38754"
             style="stop-color:#44b2c7;stop-opacity:1"
             id="stop4441" /><stop
             path="c -5.21528,0  -10.4306,0  -15.6458,0"
             style="stop-color:#ffffff;stop-opacity:1"
             id="stop4443" /><stop
             path="c 0,-3.12918  0,-6.25836  0,-9.38754"
             style="stop-color:#44b2c7;stop-opacity:1"
             id="stop4445" /></meshpatch></meshrow></meshgradient><meshgradient
       inkscape:collect="always"
       id="meshgradient4447"
       gradientUnits="userSpaceOnUse"
       x="0"
       y="0"><meshrow
         id="meshrow4449"><meshpatch
           id="meshpatch4451"><stop
             path="c 133.333,0  266.667,0  400,0"
             style="stop-color:#ffffff;stop-opacity:1"
             id="stop4453" /><stop
             path="c 0,133.333  0,266.667  0,400"
             style="stop-color:#000000;stop-opacity:1"
             id="stop4455" /><stop
             path="c -133.333,0  -266.667,0  -400,0"
             style="stop-color:#ffffff;stop-opacity:1"
             id="stop4457" /><stop
             path="c 0,-133.333  0,-266.667  0,-400"
             style="stop-color:#000000;stop-opacity:1"
             id="stop4459" /></meshpatch></meshrow></meshgradient><meshgradient
       inkscape:collect="always"
       id="meshgradient4461"
       gradientUnits="userSpaceOnUse"
       x="0.00032268011"
       y="-0.00010819141"><meshrow
         id="meshrow4463"><meshpatch
           id="meshpatch4465"><stop
             path="c 85.3332,0  170.666,0  256,0"
             style="stop-color:#ffffff;stop-opacity:1"
             id="stop4467" /><stop
             path="c 0,85.4406  0,170.881  0,256.322"
             style="stop-color:#000000;stop-opacity:1"
             id="stop4469" /><stop
             path="c -85.3332,0  -170.666,0  -256,0"
             style="stop-color:#ffffff;stop-opacity:1"
             id="stop4471" /><stop
             path="c 0,-85.4406  0,-170.881  0,-256.322"
             style="stop-color:#000000;stop-opacity:1"
             id="stop4473" /></meshpatch></meshrow></meshgradient><meshgradient
       inkscape:collect="always"
       id="meshgradient4616"
       gradientUnits="userSpaceOnUse"
       x="25.739933"
       y="4.1999998"><meshrow
         id="meshrow4628"><meshpatch
           id="meshpatch4626"><stop
             path="c 116.173,0  232.347,0  348.52,0"
             style="stop-color:#ffffff;stop-opacity:1"
             id="stop4618" /><stop
             path="c 0,130.533  0,261.067  0,391.6"
             style="stop-color:#e535ab;stop-opacity:1"
             id="stop4620" /><stop
             path="c -116.173,0  -232.347,0  -348.52,0"
             style="stop-color:#ffffff;stop-opacity:1"
             id="stop4622" /><stop
             path="c 0,-130.533  0,-261.067  0,-391.6"
             style="stop-color:#e535ab;stop-opacity:1"
             id="stop4624" /></meshpatch></meshrow></meshgradient><meshgradient
       inkscape:collect="always"
       id="meshgradient4630"
       gradientUnits="userSpaceOnUse"
       x="25.739933"
       y="4.1999998"><meshrow
         id="meshrow4642"><meshpatch
           id="meshpatch4640"><stop
             path="c 116.173,0  232.347,0  348.52,0"
             style="stop-color:#ffffff;stop-opacity:1"
             id="stop4632" /><stop
             path="c 0,130.533  0,261.067  0,391.6"
             style="stop-color:#e535ab;stop-opacity:1"
             id="stop4634" /><stop
             path="c -116.173,0  -232.347,0  -348.52,0"
             style="stop-color:#ffffff;stop-opacity:1"
             id="stop4636" /><stop
             path="c 0,-130.533  0,-261.067  0,-391.6"
             style="stop-color:#e535ab;stop-opacity:1"
             id="stop4638" /></meshpatch></meshrow></meshgradient><meshgradient
       inkscape:collect="always"
       id="meshgradient4644"
       gradientUnits="userSpaceOnUse"
       x="25.739933"
       y="4.1999998"><meshrow
         id="meshrow4656"><meshpatch
           id="meshpatch4654"><stop
             path="c 116.173,0  232.347,0  348.52,0"
             style="stop-color:#ffffff;stop-opacity:1"
             id="stop4646" /><stop
             path="c 0,130.533  0,261.067  0,391.6"
             style="stop-color:#e535ab;stop-opacity:1"
             id="stop4648" /><stop
             path="c -116.173,0  -232.347,0  -348.52,0"
             style="stop-color:#ffffff;stop-opacity:1"
             id="stop4650" /><stop
             path="c 0,-130.533  0,-261.067  0,-391.6"
             style="stop-color:#e535ab;stop-opacity:1"
             id="stop4652" /></meshpatch></meshrow></meshgradient><meshgradient
       inkscape:collect="always"
       id="meshgradient4658"
       gradientUnits="userSpaceOnUse"
       x="25.739933"
       y="4.1999998"><meshrow
         id="meshrow4670"><meshpatch
           id="meshpatch4668"><stop
             path="c 116.173,0  232.347,0  348.52,0"
             style="stop-color:#ffffff;stop-opacity:1"
             id="stop4660" /><stop
             path="c 0,130.533  0,261.067  0,391.6"
             style="stop-color:#e535ab;stop-opacity:1"
             id="stop4662" /><stop
             path="c -116.173,0  -232.347,0  -348.52,0"
             style="stop-color:#ffffff;stop-opacity:1"
             id="stop4664" /><stop
             path="c 0,-130.533  0,-261.067  0,-391.6"
             style="stop-color:#e535ab;stop-opacity:1"
             id="stop4666" /></meshpatch></meshrow></meshgradient><meshgradient
       inkscape:collect="always"
       id="meshgradient4672"
       gradientUnits="userSpaceOnUse"
       x="25.739933"
       y="4.1999998"><meshrow
         id="meshrow4684"><meshpatch
           id="meshpatch4682"><stop
             path="c 116.173,0  232.347,0  348.52,0"
             style="stop-color:#ffffff;stop-opacity:1"
             id="stop4674" /><stop
             path="c 0,130.533  0,261.067  0,391.6"
             style="stop-color:#e535ab;stop-opacity:1"
             id="stop4676" /><stop
             path="c -116.173,0  -232.347,0  -348.52,0"
             style="stop-color:#ffffff;stop-opacity:1"
             id="stop4678" /><stop
             path="c 0,-130.533  0,-261.067  0,-391.6"
             style="stop-color:#e535ab;stop-opacity:1"
             id="stop4680" /></meshpatch></meshrow></meshgradient><meshgradient
       inkscape:collect="always"
       id="meshgradient4686"
       gradientUnits="userSpaceOnUse"
       x="25.739933"
       y="4.1999998"><meshrow
         id="meshrow4698"><meshpatch
           id="meshpatch4696"><stop
             path="c 116.173,0  232.347,0  348.52,0"
             style="stop-color:#ffffff;stop-opacity:1"
             id="stop4688" /><stop
             path="c 0,130.533  0,261.067  0,391.6"
             style="stop-color:#e535ab;stop-opacity:1"
             id="stop4690" /><stop
             path="c -116.173,0  -232.347,0  -348.52,0"
             style="stop-color:#ffffff;stop-opacity:1"
             id="stop4692" /><stop
             path="c 0,-130.533  0,-261.067  0,-391.6"
             style="stop-color:#e535ab;stop-opacity:1"
             id="stop4694" /></meshpatch></meshrow></meshgradient><meshgradient
       inkscape:collect="always"
       id="meshgradient4700"
       gradientUnits="userSpaceOnUse"
       x="25.739933"
       y="4.1999998"><meshrow
         id="meshrow4712"><meshpatch
           id="meshpatch4710"><stop
             path="c 116.173,0  232.347,0  348.52,0"
             style="stop-color:#ffffff;stop-opacity:1"
             id="stop4702" /><stop
             path="c 0,130.533  0,261.067  0,391.6"
             style="stop-color:#e535ab;stop-opacity:1"
             id="stop4704" /><stop
             path="c -116.173,0  -232.347,0  -348.52,0"
             style="stop-color:#ffffff;stop-opacity:1"
             id="stop4706" /><stop
             path="c 0,-130.533  0,-261.067  0,-391.6"
             style="stop-color:#e535ab;stop-opacity:1"
             id="stop4708" /></meshpatch></meshrow></meshgradient><meshgradient
       inkscape:collect="always"
       id="meshgradient4714"
       gradientUnits="userSpaceOnUse"
       x="25.739933"
       y="4.1999998"><meshrow
         id="meshrow4726"><meshpatch
           id="meshpatch4724"><stop
             path="c 116.173,0  232.347,0  348.52,0"
             style="stop-color:#ffffff;stop-opacity:1"
             id="stop4716" /><stop
             path="c 0,130.533  0,261.067  0,391.6"
             style="stop-color:#e535ab;stop-opacity:1"
             id="stop4718" /><stop
             path="c -116.173,0  -232.347,0  -348.52,0"
             style="stop-color:#ffffff;stop-opacity:1"
             id="stop4720" /><stop
             path="c 0,-130.533  0,-261.067  0,-391.6"
             style="stop-color:#e535ab;stop-opacity:1"
             id="stop4722" /></meshpatch></meshrow></meshgradient><meshgradient
       inkscape:collect="always"
       id="meshgradient4756"
       gradientUnits="userSpaceOnUse"
       x="55.913815"
       y="29.19883"><meshrow
         id="meshrow4768"><meshpatch
           id="meshpatch4766"><stop
             path="c 381.306,0  762.611,0  1143.92,0"
             style="stop-color:#ffffff;stop-opacity:1"
             id="stop4758" /><stop
             path="c 0,381.267  0,762.534  0,1143.8"
             style="stop-color:#000000;stop-opacity:1"
             id="stop4760" /><stop
             path="c -381.306,0  -762.611,0  -1143.92,0"
             style="stop-color:#ffffff;stop-opacity:1"
             id="stop4762" /><stop
             path="c 0,-381.267  0,-762.534  0,-1143.8"
             style="stop-color:#000000;stop-opacity:1"
             id="stop4764" /></meshpatch></meshrow></meshgradient><meshgradient
       inkscape:collect="always"
       id="meshgradient4770"
       gradientUnits="userSpaceOnUse"
       x="55.913815"
       y="29.19883"><meshrow
         id="meshrow4782"><meshpatch
           id="meshpatch4780"><stop
             path="c 381.306,0  762.611,0  1143.92,0"
             style="stop-color:#ffffff;stop-opacity:1"
             id="stop4772" /><stop
             path="c 0,381.267  0,762.534  0,1143.8"
             style="stop-color:#000000;stop-opacity:1"
             id="stop4774" /><stop
             path="c -381.306,0  -762.611,0  -1143.92,0"
             style="stop-color:#ffffff;stop-opacity:1"
             id="stop4776" /><stop
             path="c 0,-381.267  0,-762.534  0,-1143.8"
             style="stop-color:#000000;stop-opacity:1"
             id="stop4778" /></meshpatch></meshrow></meshgradient></defs><sodipodi:namedview
     id="namedview88"
     pagecolor="#ffffff"
     bordercolor="#000000"
     borderopacity="0.25"
     inkscape:showpageshadow="2"
     inkscape:pageopacity="0.0"
     inkscape:pagecheckerboard="0"
     inkscape:deskcolor="#d1d1d1"
     showgrid="false"
     showguides="true"
     inkscape:zoom="0.53606478"
     inkscape:cx="552.17208"
     inkscape:cy="192.14096"
     inkscape:window-width="1366"
     inkscape:window-height="719"
     inkscape:window-x="0"
     inkscape:window-y="20"
     inkscape:window-maximized="1"
     inkscape:current-layer="svg86" /><linearGradient
     id="a"
     x1="-2.0007203"
     x2="139.28905"
     y1="48.343502"
     y2="219.34656"
     gradientTransform="scale(1.0592958,0.94402338)"
     gradientUnits="userSpaceOnUse"><stop
       offset="0"
       stop-color="#41d1ff"
       id="stop70" /><stop
       offset="1"
       stop-color="#bd34fe"
       id="stop72" /></linearGradient><linearGradient
     id="b"
     x1="188.00648"
     x2="199.00609"
     y1="3.5533929"
     y2="141.10861"
     gradientTransform="scale(0.74063538,1.3501921)"
     gradientUnits="userSpaceOnUse"><stop
       offset="0"
       stop-color="#ffea83"
       id="stop75" /><stop
       offset=".083"
       stop-color="#ffdd35"
       id="stop77" /><stop
       offset="1"
       stop-color="#ffa800"
       id="stop79" /></linearGradient><g
     id="g398"
     transform="matrix(0.06111665,0,0,0.06111665,-1.8710197,-0.42827975)"
     style="fill:url(#meshgradient4461);fill-opacity:1"><path
       d="M 255.153,37.938 134.897,252.976 c -2.483,4.44 -8.862,4.466 -11.382,0.048 L 0.875,37.958 c -2.746,-4.814 1.371,-10.646 6.827,-9.67 l 120.385,21.517 a 6.537,6.537 0 0 0 2.322,-0.004 L 248.276,28.318 c 5.438,-0.991 9.574,4.796 6.877,9.62 z"
       fill="url(#a)"
       id="path82"
       style="fill:url(#a);fill-opacity:1" /><path
       d="M 185.432,0.063 96.44,17.501 a 3.268,3.268 0 0 0 -2.634,3.014 l -5.474,92.456 a 3.268,3.268 0 0 0 3.997,3.378 l 24.777,-5.718 c 2.318,-0.535 4.413,1.507 3.936,3.838 l -7.361,36.047 c -0.495,2.426 1.782,4.5 4.151,3.78 l 15.304,-4.649 c 2.372,-0.72 4.652,1.36 4.15,3.788 l -11.698,56.621 c -0.732,3.542 3.979,5.473 5.943,2.437 l 1.313,-2.028 72.516,-144.72 c 1.215,-2.423 -0.88,-5.186 -3.54,-4.672 l -25.505,4.922 c -2.396,0.462 -4.435,-1.77 -3.759,-4.114 L 189.202,4.176 c 0.677,-2.35 -1.37,-4.583 -3.769,-4.113 z"
       fill="url(#b)"
       id="path84"
       style="fill:url(#b);fill-opacity:1" /></g><style
     id="style558">.st0{fill:#007acc}.st1{fill:#fff}</style><g
     id="g572"
     transform="matrix(0.03911461,0,0,0.03911461,18.312375,-0.55853045)"
     style="fill:url(#meshgradient4447);fill-opacity:1"><path
       class="st0"
       d="M 0,200 V 0 H 400 V 400 H 0"
       id="path560"
       style="fill-opacity:1" /><path
       class="st1"
       d="M 87.7,200.7 V 217 h 52 v 148 h 36.9 V 217 h 52 v -16 c 0,-9 0,-16.3 -0.4,-16.5 0,-0.3 -31.7,-0.4 -70.2,-0.4 l -70,0.3 v 16.4 z M 321.4,184 c 10.2,2.4 18,7 25,14.3 3.7,4 9.2,11 9.6,12.8 0,0.6 -17.3,12.3 -27.8,18.8 -0.4,0.3 -2,-1.4 -3.6,-4 -5.2,-7.4 -10.5,-10.6 -18.8,-11.2 -12,-0.8 -20,5.5 -20,16 0,3.2 0.6,5 1.8,7.6 2.7,5.5 7.7,8.8 23.2,15.6 28.6,12.3 41,20.4 48.5,32 8.5,13 10.4,33.4 4.7,48.7 -6.4,16.7 -22,28 -44.3,31.7 -7,1.2 -23,1 -30.5,-0.3 -16,-3 -31.3,-11 -40.7,-21.3 -3.7,-4 -10.8,-14.7 -10.4,-15.4 l 3.8,-2.4 15,-8.7 11.3,-6.6 2.6,3.5 c 3.3,5.2 10.7,12.2 15,14.6 13,6.7 30.4,5.8 39,-2 3.7,-3.4 5.3,-7 5.3,-12 0,-4.6 -0.7,-6.7 -3,-10.2 -3.2,-4.4 -9.6,-8 -27.6,-16 -20.7,-8.8 -29.5,-14.4 -37.7,-23 -4.7,-5.2 -9,-13.3 -11,-20 -1.5,-5.8 -2,-20 -0.6,-25.7 4.3,-20 19.4,-34 41,-38 7,-1.4 23.5,-0.8 30.4,1 z"
       id="path562"
       style="fill-opacity:1" /></g><path
     d="m 46.680802,2.341949 c -2.086093,0 -3.389947,1.043075 -3.911454,3.12917 0.782287,-1.043074 1.694941,-1.434228 2.73802,-1.173437 0.595092,0.148755 1.02046,0.580542 1.491305,1.058418 0.767015,0.778558 1.654672,1.679599 3.593594,1.679599 2.086091,0 3.389952,-1.043075 3.911459,-3.12917 C 53.721439,4.949614 52.80878,5.340757 51.765706,5.079974 51.170613,4.931211 50.74524,4.499427 50.2744,4.021559 49.507381,3.24299 48.619729,2.341949 46.680802,2.341949 Z m -3.911454,4.69375 c -2.086095,0 -3.389955,1.0430756 -3.911465,3.129203 0.78229,-1.0431084 1.694945,-1.4342504 2.738025,-1.1734704 0.59509,0.148755 1.020456,0.5805514 1.4913,1.0583754 0.767015,0.778567 1.654672,1.679683 3.593594,1.679683 2.086098,0 3.389956,-1.043117 3.911465,-3.1292004 C 49.809974,9.643342 48.897314,10.03455 47.854241,9.773698 47.259158,9.624982 46.833775,9.1931776 46.362936,8.7153086 45.595927,7.9367406 44.708264,7.035699 42.769348,7.035699 Z"
     fill="url(#a)"
     id="path697"
     style="fill:url(#meshgradient4433);fill-opacity:1;stroke-width:0.0611215" /><g
     fill="#e535ab"
     id="g1710"
     transform="matrix(0.03887311,0,0,0.03887311,57.324595,-0.3622836)"
     style="fill:url(#meshgradient4419);fill-opacity:1"><path
       d="m 57.468,302.66 -14.376,-8.3 160.15,-277.38 14.376,8.3 z"
       id="path1694"
       style="fill:url(#meshgradient4616);fill-opacity:1" /><path
       d="m 39.8,272.2 h 320.3 v 16.6 H 39.8 Z"
       id="path1696"
       style="fill:url(#meshgradient4630);fill-opacity:1" /><path
       d="m 206.348,374.026 -160.21,-92.5 8.3,-14.376 160.21,92.5 z m 139.174,-241.079 -160.21,-92.5 8.3,-14.376 160.21,92.5 z"
       id="path1698"
       style="fill:url(#meshgradient4644);fill-opacity:1" /><path
       d="m 54.482,132.883 -8.3,-14.375 160.21,-92.5 8.3,14.375 z"
       id="path1700"
       style="fill:url(#meshgradient4658);fill-opacity:1" /><path
       d="m 342.568,302.663 -160.15,-277.38 14.376,-8.3 160.15,277.38 z M 52.5,107.5 h 16.6 v 185 H 52.5 Z"
       id="path1702"
       style="fill:url(#meshgradient4672);fill-opacity:1" /><path
       d="m 330.9,107.5 h 16.6 v 185 h -16.6 z"
       id="path1704"
       style="fill:url(#meshgradient4686);fill-opacity:1" /><path
       d="m 203.522,367 -7.25,-12.558 139.34,-80.45 7.25,12.557 z"
       id="path1706"
       style="fill:url(#meshgradient4700);fill-opacity:1" /><path
       d="m 369.5,297.9 c -9.6,16.7 -31,22.4 -47.7,12.8 -16.7,-9.6 -22.4,-31 -12.8,-47.7 9.6,-16.7 31,-22.4 47.7,-12.8 16.8,9.7 22.5,31 12.8,47.7 M 90.9,137 c -9.6,16.7 -31,22.4 -47.7,12.8 -16.7,-9.6 -22.4,-31 -12.8,-47.7 9.6,-16.7 31,-22.4 47.7,-12.8 16.7,9.7 22.4,31 12.8,47.7 M 30.5,297.9 c -9.6,-16.7 -3.9,-38 12.8,-47.7 16.7,-9.6 38,-3.9 47.7,12.8 9.6,16.7 3.9,38 -12.8,47.7 -16.8,9.6 -38.1,3.9 -47.7,-12.8 M 309.1,137 c -9.6,-16.7 -3.9,-38 12.8,-47.7 16.7,-9.6 38,-3.9 47.7,12.8 9.6,16.7 3.9,38 -12.8,47.7 -16.7,9.6 -38.1,3.9 -47.7,-12.8 M 200,395.8 c -19.3,0 -34.9,-15.6 -34.9,-34.9 0,-19.3 15.6,-34.9 34.9,-34.9 19.3,0 34.9,15.6 34.9,34.9 0,19.2 -15.6,34.9 -34.9,34.9 M 200,74 c -19.3,0 -34.9,-15.6 -34.9,-34.9 0,-19.3 15.6,-34.9 34.9,-34.9 19.3,0 34.9,15.6 34.9,34.9 0,19.3 -15.6,34.9 -34.9,34.9"
       id="path1708"
       style="fill:url(#meshgradient4714);fill-opacity:1" /></g><g
     style="fill:url(#meshgradient4405);fill-opacity:1"
     id="g2508"
     transform="matrix(0.01564584,0,0,0.01564584,75.015635,-0.46737075)"><path
       clip-rule="evenodd"
       d="m 678.974,133.331 -116.408,66.671 -116.408,66.661 -116.417,66.67 v 400.004 l 116.417,-66.67 116.408,-66.671 V 466.665 l -116.408,66.67 V 400.004 l 116.408,-66.671 116.408,-66.67 V 666.667 L 562.566,733.337 446.158,799.998 329.741,866.669 213.333,933.33 329.741,1000 446.158,933.33 562.566,866.669 678.974,799.998 795.391,733.337 V 66.67 L 678.974,0 Z"
       fill="#060917"
       fill-rule="evenodd"
       id="path2499"
       style="fill-opacity:1" /></g><g
     id="g4022"
     transform="matrix(0.01367881,0,0,0.01367881,94.592487,-0.80365435)"
     style="fill:url(#meshgradient4391);fill-opacity:1"><path
       d="m 599.49,29.7 c -2.2,0.1 -10.5,0.8 -18.5,1.4 -100,7.4 -201.4,44.4 -284.5,103.8 -27.5,19.6 -49.2,38 -73.4,62.2 C 83.99,336.3 26.69,535.5 70.19,729 c 17.8,79.4 55.8,159.3 106.2,223.5 79.1,100.9 187.5,172 309.1,202.8 49.5,12.6 90.6,17.7 142.5,17.7 51.2,0 88.9,-4.6 137.7,-16.5 70.1,-17.2 131.7,-45.5 193.3,-88.6 59,-41.4 113.9,-99.4 153.3,-161.9 50.8,-80.8 79.7,-170 86.8,-267.9 1.5,-20.6 0.6,-71.6 -1.6,-92.6 -4.4,-41.7 -15.6,-96.7 -22.1,-108.2 -2.6,-4.5 -9.9,-10.3 -15.3,-12.2 -1.9,-0.6 -6.1,-1.1 -9.5,-1.1 -15,0 -27.6,12.5 -27.6,27.2 0,3.5 1.6,11.9 3.9,21 19.8,77 21.4,161.6 4.5,238.8 -21.6,98.9 -69.8,186.1 -142.5,257.6 -33.9,33.3 -66.6,57.9 -108.9,82.1 -98.7,56.5 -221.4,77.9 -336.5,58.7 -87.4,-14.5 -163.3,-48.1 -235.4,-104.2 -33.9,-26.4 -75.2,-69.9 -100.8,-106.3 -44.2,-62.8 -72,-129 -86.4,-205.9 -7.3,-39.2 -9.8,-91.2 -6.4,-133.5 5.2,-64.2 21.3,-123.8 48.6,-180.3 12.6,-26.3 20.4,-40 35.5,-62.7 30.8,-46.6 71.6,-90.2 116.7,-124.8 52.9,-40.7 115.7,-71.6 179.2,-88.2 34.3,-9 61.7,-13.5 96.5,-16 125.9,-9 248.3,27.2 348,103.1 7.4,5.6 15.2,11.7 17.3,13.6 l 3.8,3.3 -1.5,4.2 c -7.7,21.6 -2,48.5 14.2,67.3 8.3,9.6 23.3,18.6 36,21.6 8.7,2.1 23.8,2.1 32.6,0 22.3,-5.3 43.1,-24.4 49.7,-45.6 7.4,-23.7 3.1,-47.1 -12.1,-66.1 -16.8,-21 -45.7,-30.4 -72.4,-23.4 l -5.8,1.5 -8.2,-6.8 c -33.3,-27.9 -73.6,-53.7 -116,-74.2 -68.8,-33.3 -137.9,-51.2 -216.6,-56 -15.1,-0.9 -50.8,-1.1 -60.5,-0.3 z"
       id="path4010"
       style="fill:url(#meshgradient4756);fill-opacity:1" /><path
       d="m 540.29,358.7 c -10.6,27.4 -33.6,87.4 -51.3,133.3 -17.7,45.9 -54,140.2 -80.7,209.5 -26.6,69.3 -48.7,126.3 -48.9,126.7 -0.3,0.5 27.8,0.8 62.3,0.8 h 62.9 l 3.7,-10.3 c 2.1,-5.6 9.5,-25.4 16.4,-44 l 12.6,-33.7 h 94.4 c 75.2,0 94.4,-0.3 94.1,-1.3 -1,-2.7 -16.4,-46.7 -24.6,-70.2 l -8.8,-25 -62.5,-0.5 -62.4,-0.5 40.6,-111.9 c 24.4,-67.2 40.9,-111.2 41.2,-110.2 0.4,0.9 16.6,47 36.1,102.4 19.5,55.4 51.7,146.6 71.5,202.7 l 35.9,102 62.6,0.3 c 34.4,0.1 62.6,0 62.6,-0.2 0,-0.2 -8.1,-21.5 -18.1,-47.2 -10,-25.8 -31.4,-81.3 -47.6,-123.4 -16.2,-42.1 -34.4,-89.3 -40.5,-105 -6,-15.7 -16.5,-42.9 -23.3,-60.5 -6.8,-17.6 -24.5,-63.7 -39.5,-102.5 -15,-38.8 -28.1,-72.9 -29.2,-75.8 l -1.9,-5.2 h -138.5 z"
       id="path4012"
       style="fill:url(#meshgradient4770);fill-opacity:1" /></g><script
     id="mesh_polyfill"
     type="text/javascript">
!function(){const t=&quot;http://www.w3.org/2000/svg&quot;,e=&quot;http://www.w3.org/1999/xlink&quot;,s=&quot;http://www.w3.org/1999/xhtml&quot;,r=2;if(document.createElementNS(t,&quot;meshgradient&quot;).x)return;const n=(t,e,s,r)=&gt;{let n=new x(.5*(e.x+s.x),.5*(e.y+s.y)),o=new x(.5*(t.x+e.x),.5*(t.y+e.y)),i=new x(.5*(s.x+r.x),.5*(s.y+r.y)),a=new x(.5*(n.x+o.x),.5*(n.y+o.y)),h=new x(.5*(n.x+i.x),.5*(n.y+i.y)),l=new x(.5*(a.x+h.x),.5*(a.y+h.y));return[[t,o,a,l],[l,h,i,r]]},o=t=&gt;{let e=t[0].distSquared(t[1]),s=t[2].distSquared(t[3]),r=.25*t[0].distSquared(t[2]),n=.25*t[1].distSquared(t[3]),o=e&gt;s?e:s,i=r&gt;n?r:n;return 18*(o&gt;i?o:i)},i=(t,e)=&gt;Math.sqrt(t.distSquared(e)),a=(t,e)=&gt;t.scale(2/3).add(e.scale(1/3)),h=t=&gt;{let e,s,r,n,o,i,a,h=new g;return t.match(/(\w+\(\s*[^)]+\))+/g).forEach(t=&gt;{let l=t.match(/[\w.-]+/g),d=l.shift();switch(d){case&quot;translate&quot;:2===l.length?e=new g(1,0,0,1,l[0],l[1]):(console.error(&quot;mesh.js: translate does not have 2 arguments!&quot;),e=new g(1,0,0,1,0,0)),h=h.append(e);break;case&quot;scale&quot;:1===l.length?s=new g(l[0],0,0,l[0],0,0):2===l.length?s=new g(l[0],0,0,l[1],0,0):(console.error(&quot;mesh.js: scale does not have 1 or 2 arguments!&quot;),s=new g(1,0,0,1,0,0)),h=h.append(s);break;case&quot;rotate&quot;:if(3===l.length&amp;&amp;(e=new g(1,0,0,1,l[1],l[2]),h=h.append(e)),l[0]){r=l[0]*Math.PI/180;let t=Math.cos(r),e=Math.sin(r);Math.abs(t)&lt;1e-16&amp;&amp;(t=0),Math.abs(e)&lt;1e-16&amp;&amp;(e=0),a=new g(t,e,-e,t,0,0),h=h.append(a)}else console.error(&quot;math.js: No argument to rotate transform!&quot;);3===l.length&amp;&amp;(e=new g(1,0,0,1,-l[1],-l[2]),h=h.append(e));break;case&quot;skewX&quot;:l[0]?(r=l[0]*Math.PI/180,n=Math.tan(r),o=new g(1,0,n,1,0,0),h=h.append(o)):console.error(&quot;math.js: No argument to skewX transform!&quot;);break;case&quot;skewY&quot;:l[0]?(r=l[0]*Math.PI/180,n=Math.tan(r),i=new g(1,n,0,1,0,0),h=h.append(i)):console.error(&quot;math.js: No argument to skewY transform!&quot;);break;case&quot;matrix&quot;:6===l.length?h=h.append(new g(...l)):console.error(&quot;math.js: Incorrect number of arguments for matrix!&quot;);break;default:console.error(&quot;mesh.js: Unhandled transform type: &quot;+d)}}),h},l=t=&gt;{let e=[],s=t.split(/[ ,]+/);for(let t=0,r=s.length-1;t&lt;r;t+=2)e.push(new x(parseFloat(s[t]),parseFloat(s[t+1])));return e},d=(t,e)=&gt;{for(let s in e)t.setAttribute(s,e[s])},c=(t,e,s,r,n)=&gt;{let o,i,a=[0,0,0,0];for(let h=0;h&lt;3;++h)e[h]&lt;t[h]&amp;&amp;e[h]&lt;s[h]||t[h]&lt;e[h]&amp;&amp;s[h]&lt;e[h]?a[h]=0:(a[h]=.5*((e[h]-t[h])/r+(s[h]-e[h])/n),o=Math.abs(3*(e[h]-t[h])/r),i=Math.abs(3*(s[h]-e[h])/n),a[h]&gt;o?a[h]=o:a[h]&gt;i&amp;&amp;(a[h]=i));return a},u=[[1,0,0,0,0,0,0,0,0,0,0,0,0,0,0,0],[0,0,0,0,1,0,0,0,0,0,0,0,0,0,0,0],[-3,3,0,0,-2,-1,0,0,0,0,0,0,0,0,0,0],[2,-2,0,0,1,1,0,0,0,0,0,0,0,0,0,0],[0,0,0,0,0,0,0,0,1,0,0,0,0,0,0,0],[0,0,0,0,0,0,0,0,0,0,0,0,1,0,0,0],[0,0,0,0,0,0,0,0,-3,3,0,0,-2,-1,0,0],[0,0,0,0,0,0,0,0,2,-2,0,0,1,1,0,0],[-3,0,3,0,0,0,0,0,-2,0,-1,0,0,0,0,0],[0,0,0,0,-3,0,3,0,0,0,0,0,-2,0,-1,0],[9,-9,-9,9,6,3,-6,-3,6,-6,3,-3,4,2,2,1],[-6,6,6,-6,-3,-3,3,3,-4,4,-2,2,-2,-2,-1,-1],[2,0,-2,0,0,0,0,0,1,0,1,0,0,0,0,0],[0,0,0,0,2,0,-2,0,0,0,0,0,1,0,1,0],[-6,6,6,-6,-4,-2,4,2,-3,3,-3,3,-2,-1,-2,-1],[4,-4,-4,4,2,2,-2,-2,2,-2,2,-2,1,1,1,1]],f=t=&gt;{let e=[];for(let s=0;s&lt;16;++s){e[s]=0;for(let r=0;r&lt;16;++r)e[s]+=u[s][r]*t[r]}return e},p=(t,e,s)=&gt;{const r=e*e,n=s*s,o=e*e*e,i=s*s*s;return t[0]+t[1]*e+t[2]*r+t[3]*o+t[4]*s+t[5]*s*e+t[6]*s*r+t[7]*s*o+t[8]*n+t[9]*n*e+t[10]*n*r+t[11]*n*o+t[12]*i+t[13]*i*e+t[14]*i*r+t[15]*i*o},y=t=&gt;{let e=[],s=[],r=[];for(let s=0;s&lt;4;++s)e[s]=[],e[s][0]=n(t[0][s],t[1][s],t[2][s],t[3][s]),e[s][1]=[],e[s][1].push(...n(...e[s][0][0])),e[s][1].push(...n(...e[s][0][1])),e[s][2]=[],e[s][2].push(...n(...e[s][1][0])),e[s][2].push(...n(...e[s][1][1])),e[s][2].push(...n(...e[s][1][2])),e[s][2].push(...n(...e[s][1][3]));for(let t=0;t&lt;8;++t){s[t]=[];for(let r=0;r&lt;4;++r)s[t][r]=[],s[t][r][0]=n(e[0][2][t][r],e[1][2][t][r],e[2][2][t][r],e[3][2][t][r]),s[t][r][1]=[],s[t][r][1].push(...n(...s[t][r][0][0])),s[t][r][1].push(...n(...s[t][r][0][1])),s[t][r][2]=[],s[t][r][2].push(...n(...s[t][r][1][0])),s[t][r][2].push(...n(...s[t][r][1][1])),s[t][r][2].push(...n(...s[t][r][1][2])),s[t][r][2].push(...n(...s[t][r][1][3]))}for(let t=0;t&lt;8;++t){r[t]=[];for(let e=0;e&lt;8;++e)r[t][e]=[],r[t][e][0]=s[t][0][2][e],r[t][e][1]=s[t][1][2][e],r[t][e][2]=s[t][2][2][e],r[t][e][3]=s[t][3][2][e]}return r};class x{constructor(t,e){this.x=t||0,this.y=e||0}toString(){return`(x=${this.x}, y=${this.y})`}clone(){return new x(this.x,this.y)}add(t){return new x(this.x+t.x,this.y+t.y)}scale(t){return void 0===t.x?new x(this.x*t,this.y*t):new x(this.x*t.x,this.y*t.y)}distSquared(t){let e=this.x-t.x,s=this.y-t.y;return e*e+s*s}transform(t){let e=this.x*t.a+this.y*t.c+t.e,s=this.x*t.b+this.y*t.d+t.f;return new x(e,s)}}class g{constructor(t,e,s,r,n,o){void 0===t?(this.a=1,this.b=0,this.c=0,this.d=1,this.e=0,this.f=0):(this.a=t,this.b=e,this.c=s,this.d=r,this.e=n,this.f=o)}toString(){return`affine: ${this.a} ${this.c} ${this.e} \n       ${this.b} ${this.d} ${this.f}`}append(t){t instanceof g||console.error(&quot;mesh.js: argument to Affine.append is not affine!&quot;);let e=this.a*t.a+this.c*t.b,s=this.b*t.a+this.d*t.b,r=this.a*t.c+this.c*t.d,n=this.b*t.c+this.d*t.d,o=this.a*t.e+this.c*t.f+this.e,i=this.b*t.e+this.d*t.f+this.f;return new g(e,s,r,n,o,i)}}class w{constructor(t,e){this.nodes=t,this.colors=e}paintCurve(t,e){if(o(this.nodes)&gt;r){const s=n(...this.nodes);let r=[[],[]],o=[[],[]];for(let t=0;t&lt;4;++t)r[0][t]=this.colors[0][t],r[1][t]=(this.colors[0][t]+this.colors[1][t])/2,o[0][t]=r[1][t],o[1][t]=this.colors[1][t];let i=new w(s[0],r),a=new w(s[1],o);i.paintCurve(t,e),a.paintCurve(t,e)}else{let s=Math.round(this.nodes[0].x);if(s&gt;=0&amp;&amp;s&lt;e){let r=4*(~~this.nodes[0].y*e+s);t[r]=Math.round(this.colors[0][0]),t[r+1]=Math.round(this.colors[0][1]),t[r+2]=Math.round(this.colors[0][2]),t[r+3]=Math.round(this.colors[0][3])}}}}class m{constructor(t,e){this.nodes=t,this.colors=e}split(){let t=[[],[],[],[]],e=[[],[],[],[]],s=[[[],[]],[[],[]]],r=[[[],[]],[[],[]]];for(let s=0;s&lt;4;++s){const r=n(this.nodes[0][s],this.nodes[1][s],this.nodes[2][s],this.nodes[3][s]);t[0][s]=r[0][0],t[1][s]=r[0][1],t[2][s]=r[0][2],t[3][s]=r[0][3],e[0][s]=r[1][0],e[1][s]=r[1][1],e[2][s]=r[1][2],e[3][s]=r[1][3]}for(let t=0;t&lt;4;++t)s[0][0][t]=this.colors[0][0][t],s[0][1][t]=this.colors[0][1][t],s[1][0][t]=(this.colors[0][0][t]+this.colors[1][0][t])/2,s[1][1][t]=(this.colors[0][1][t]+this.colors[1][1][t])/2,r[0][0][t]=s[1][0][t],r[0][1][t]=s[1][1][t],r[1][0][t]=this.colors[1][0][t],r[1][1][t]=this.colors[1][1][t];return[new m(t,s),new m(e,r)]}paint(t,e){let s,n=!1;for(let t=0;t&lt;4;++t)if((s=o([this.nodes[0][t],this.nodes[1][t],this.nodes[2][t],this.nodes[3][t]]))&gt;r){n=!0;break}if(n){let s=this.split();s[0].paint(t,e),s[1].paint(t,e)}else{new w([...this.nodes[0]],[...this.colors[0]]).paintCurve(t,e)}}}class b{constructor(t){this.readMesh(t),this.type=t.getAttribute(&quot;type&quot;)||&quot;bilinear&quot;}readMesh(t){let e=[[]],s=[[]],r=Number(t.getAttribute(&quot;x&quot;)),n=Number(t.getAttribute(&quot;y&quot;));e[0][0]=new x(r,n);let o=t.children;for(let t=0,r=o.length;t&lt;r;++t){e[3*t+1]=[],e[3*t+2]=[],e[3*t+3]=[],s[t+1]=[];let r=o[t].children;for(let n=0,o=r.length;n&lt;o;++n){let o=r[n].children;for(let r=0,i=o.length;r&lt;i;++r){let i=r;0!==t&amp;&amp;++i;let h,d=o[r].getAttribute(&quot;path&quot;),c=&quot;l&quot;;null!=d&amp;&amp;(c=(h=d.match(/\s*([lLcC])\s*(.*)/))[1]);let u=l(h[2]);switch(c){case&quot;l&quot;:0===i?(e[3*t][3*n+3]=u[0].add(e[3*t][3*n]),e[3*t][3*n+1]=a(e[3*t][3*n],e[3*t][3*n+3]),e[3*t][3*n+2]=a(e[3*t][3*n+3],e[3*t][3*n])):1===i?(e[3*t+3][3*n+3]=u[0].add(e[3*t][3*n+3]),e[3*t+1][3*n+3]=a(e[3*t][3*n+3],e[3*t+3][3*n+3]),e[3*t+2][3*n+3]=a(e[3*t+3][3*n+3],e[3*t][3*n+3])):2===i?(0===n&amp;&amp;(e[3*t+3][3*n+0]=u[0].add(e[3*t+3][3*n+3])),e[3*t+3][3*n+1]=a(e[3*t+3][3*n],e[3*t+3][3*n+3]),e[3*t+3][3*n+2]=a(e[3*t+3][3*n+3],e[3*t+3][3*n])):(e[3*t+1][3*n]=a(e[3*t][3*n],e[3*t+3][3*n]),e[3*t+2][3*n]=a(e[3*t+3][3*n],e[3*t][3*n]));break;case&quot;L&quot;:0===i?(e[3*t][3*n+3]=u[0],e[3*t][3*n+1]=a(e[3*t][3*n],e[3*t][3*n+3]),e[3*t][3*n+2]=a(e[3*t][3*n+3],e[3*t][3*n])):1===i?(e[3*t+3][3*n+3]=u[0],e[3*t+1][3*n+3]=a(e[3*t][3*n+3],e[3*t+3][3*n+3]),e[3*t+2][3*n+3]=a(e[3*t+3][3*n+3],e[3*t][3*n+3])):2===i?(0===n&amp;&amp;(e[3*t+3][3*n+0]=u[0]),e[3*t+3][3*n+1]=a(e[3*t+3][3*n],e[3*t+3][3*n+3]),e[3*t+3][3*n+2]=a(e[3*t+3][3*n+3],e[3*t+3][3*n])):(e[3*t+1][3*n]=a(e[3*t][3*n],e[3*t+3][3*n]),e[3*t+2][3*n]=a(e[3*t+3][3*n],e[3*t][3*n]));break;case&quot;c&quot;:0===i?(e[3*t][3*n+1]=u[0].add(e[3*t][3*n]),e[3*t][3*n+2]=u[1].add(e[3*t][3*n]),e[3*t][3*n+3]=u[2].add(e[3*t][3*n])):1===i?(e[3*t+1][3*n+3]=u[0].add(e[3*t][3*n+3]),e[3*t+2][3*n+3]=u[1].add(e[3*t][3*n+3]),e[3*t+3][3*n+3]=u[2].add(e[3*t][3*n+3])):2===i?(e[3*t+3][3*n+2]=u[0].add(e[3*t+3][3*n+3]),e[3*t+3][3*n+1]=u[1].add(e[3*t+3][3*n+3]),0===n&amp;&amp;(e[3*t+3][3*n+0]=u[2].add(e[3*t+3][3*n+3]))):(e[3*t+2][3*n]=u[0].add(e[3*t+3][3*n]),e[3*t+1][3*n]=u[1].add(e[3*t+3][3*n]));break;case&quot;C&quot;:0===i?(e[3*t][3*n+1]=u[0],e[3*t][3*n+2]=u[1],e[3*t][3*n+3]=u[2]):1===i?(e[3*t+1][3*n+3]=u[0],e[3*t+2][3*n+3]=u[1],e[3*t+3][3*n+3]=u[2]):2===i?(e[3*t+3][3*n+2]=u[0],e[3*t+3][3*n+1]=u[1],0===n&amp;&amp;(e[3*t+3][3*n+0]=u[2])):(e[3*t+2][3*n]=u[0],e[3*t+1][3*n]=u[1]);break;default:console.error(&quot;mesh.js: &quot;+c+&quot; invalid path type.&quot;)}if(0===t&amp;&amp;0===n||r&gt;0){let e=window.getComputedStyle(o[r]).stopColor.match(/^rgb\s*\(\s*(\d+)\s*,\s*(\d+)\s*,\s*(\d+)\s*\)$/i),a=window.getComputedStyle(o[r]).stopOpacity,h=255;a&amp;&amp;(h=Math.floor(255*a)),e&amp;&amp;(0===i?(s[t][n]=[],s[t][n][0]=Math.floor(e[1]),s[t][n][1]=Math.floor(e[2]),s[t][n][2]=Math.floor(e[3]),s[t][n][3]=h):1===i?(s[t][n+1]=[],s[t][n+1][0]=Math.floor(e[1]),s[t][n+1][1]=Math.floor(e[2]),s[t][n+1][2]=Math.floor(e[3]),s[t][n+1][3]=h):2===i?(s[t+1][n+1]=[],s[t+1][n+1][0]=Math.floor(e[1]),s[t+1][n+1][1]=Math.floor(e[2]),s[t+1][n+1][2]=Math.floor(e[3]),s[t+1][n+1][3]=h):3===i&amp;&amp;(s[t+1][n]=[],s[t+1][n][0]=Math.floor(e[1]),s[t+1][n][1]=Math.floor(e[2]),s[t+1][n][2]=Math.floor(e[3]),s[t+1][n][3]=h))}}e[3*t+1][3*n+1]=new x,e[3*t+1][3*n+2]=new x,e[3*t+2][3*n+1]=new x,e[3*t+2][3*n+2]=new x,e[3*t+1][3*n+1].x=(-4*e[3*t][3*n].x+6*(e[3*t][3*n+1].x+e[3*t+1][3*n].x)+-2*(e[3*t][3*n+3].x+e[3*t+3][3*n].x)+3*(e[3*t+3][3*n+1].x+e[3*t+1][3*n+3].x)+-1*e[3*t+3][3*n+3].x)/9,e[3*t+1][3*n+2].x=(-4*e[3*t][3*n+3].x+6*(e[3*t][3*n+2].x+e[3*t+1][3*n+3].x)+-2*(e[3*t][3*n].x+e[3*t+3][3*n+3].x)+3*(e[3*t+3][3*n+2].x+e[3*t+1][3*n].x)+-1*e[3*t+3][3*n].x)/9,e[3*t+2][3*n+1].x=(-4*e[3*t+3][3*n].x+6*(e[3*t+3][3*n+1].x+e[3*t+2][3*n].x)+-2*(e[3*t+3][3*n+3].x+e[3*t][3*n].x)+3*(e[3*t][3*n+1].x+e[3*t+2][3*n+3].x)+-1*e[3*t][3*n+3].x)/9,e[3*t+2][3*n+2].x=(-4*e[3*t+3][3*n+3].x+6*(e[3*t+3][3*n+2].x+e[3*t+2][3*n+3].x)+-2*(e[3*t+3][3*n].x+e[3*t][3*n+3].x)+3*(e[3*t][3*n+2].x+e[3*t+2][3*n].x)+-1*e[3*t][3*n].x)/9,e[3*t+1][3*n+1].y=(-4*e[3*t][3*n].y+6*(e[3*t][3*n+1].y+e[3*t+1][3*n].y)+-2*(e[3*t][3*n+3].y+e[3*t+3][3*n].y)+3*(e[3*t+3][3*n+1].y+e[3*t+1][3*n+3].y)+-1*e[3*t+3][3*n+3].y)/9,e[3*t+1][3*n+2].y=(-4*e[3*t][3*n+3].y+6*(e[3*t][3*n+2].y+e[3*t+1][3*n+3].y)+-2*(e[3*t][3*n].y+e[3*t+3][3*n+3].y)+3*(e[3*t+3][3*n+2].y+e[3*t+1][3*n].y)+-1*e[3*t+3][3*n].y)/9,e[3*t+2][3*n+1].y=(-4*e[3*t+3][3*n].y+6*(e[3*t+3][3*n+1].y+e[3*t+2][3*n].y)+-2*(e[3*t+3][3*n+3].y+e[3*t][3*n].y)+3*(e[3*t][3*n+1].y+e[3*t+2][3*n+3].y)+-1*e[3*t][3*n+3].y)/9,e[3*t+2][3*n+2].y=(-4*e[3*t+3][3*n+3].y+6*(e[3*t+3][3*n+2].y+e[3*t+2][3*n+3].y)+-2*(e[3*t+3][3*n].y+e[3*t][3*n+3].y)+3*(e[3*t][3*n+2].y+e[3*t+2][3*n].y)+-1*e[3*t][3*n].y)/9}}this.nodes=e,this.colors=s}paintMesh(t,e){let s=(this.nodes.length-1)/3,r=(this.nodes[0].length-1)/3;if(&quot;bilinear&quot;===this.type||s&lt;2||r&lt;2){let n;for(let o=0;o&lt;s;++o)for(let s=0;s&lt;r;++s){let r=[];for(let t=3*o,e=3*o+4;t&lt;e;++t)r.push(this.nodes[t].slice(3*s,3*s+4));let i=[];i.push(this.colors[o].slice(s,s+2)),i.push(this.colors[o+1].slice(s,s+2)),(n=new m(r,i)).paint(t,e)}}else{let n,o,a,h,l,d,u;const x=s,g=r;s++,r++;let w=new Array(s);for(let t=0;t&lt;s;++t){w[t]=new Array(r);for(let e=0;e&lt;r;++e)w[t][e]=[],w[t][e][0]=this.nodes[3*t][3*e],w[t][e][1]=this.colors[t][e]}for(let t=0;t&lt;s;++t)for(let e=0;e&lt;r;++e)0!==t&amp;&amp;t!==x&amp;&amp;(n=i(w[t-1][e][0],w[t][e][0]),o=i(w[t+1][e][0],w[t][e][0]),w[t][e][2]=c(w[t-1][e][1],w[t][e][1],w[t+1][e][1],n,o)),0!==e&amp;&amp;e!==g&amp;&amp;(n=i(w[t][e-1][0],w[t][e][0]),o=i(w[t][e+1][0],w[t][e][0]),w[t][e][3]=c(w[t][e-1][1],w[t][e][1],w[t][e+1][1],n,o));for(let t=0;t&lt;r;++t){w[0][t][2]=[],w[x][t][2]=[];for(let e=0;e&lt;4;++e)n=i(w[1][t][0],w[0][t][0]),o=i(w[x][t][0],w[x-1][t][0]),w[0][t][2][e]=n&gt;0?2*(w[1][t][1][e]-w[0][t][1][e])/n-w[1][t][2][e]:0,w[x][t][2][e]=o&gt;0?2*(w[x][t][1][e]-w[x-1][t][1][e])/o-w[x-1][t][2][e]:0}for(let t=0;t&lt;s;++t){w[t][0][3]=[],w[t][g][3]=[];for(let e=0;e&lt;4;++e)n=i(w[t][1][0],w[t][0][0]),o=i(w[t][g][0],w[t][g-1][0]),w[t][0][3][e]=n&gt;0?2*(w[t][1][1][e]-w[t][0][1][e])/n-w[t][1][3][e]:0,w[t][g][3][e]=o&gt;0?2*(w[t][g][1][e]-w[t][g-1][1][e])/o-w[t][g-1][3][e]:0}for(let s=0;s&lt;x;++s)for(let r=0;r&lt;g;++r){let n=i(w[s][r][0],w[s+1][r][0]),o=i(w[s][r+1][0],w[s+1][r+1][0]),c=i(w[s][r][0],w[s][r+1][0]),x=i(w[s+1][r][0],w[s+1][r+1][0]),g=[[],[],[],[]];for(let t=0;t&lt;4;++t){(d=[])[0]=w[s][r][1][t],d[1]=w[s+1][r][1][t],d[2]=w[s][r+1][1][t],d[3]=w[s+1][r+1][1][t],d[4]=w[s][r][2][t]*n,d[5]=w[s+1][r][2][t]*n,d[6]=w[s][r+1][2][t]*o,d[7]=w[s+1][r+1][2][t]*o,d[8]=w[s][r][3][t]*c,d[9]=w[s+1][r][3][t]*x,d[10]=w[s][r+1][3][t]*c,d[11]=w[s+1][r+1][3][t]*x,d[12]=0,d[13]=0,d[14]=0,d[15]=0,u=f(d);for(let e=0;e&lt;9;++e){g[t][e]=[];for(let s=0;s&lt;9;++s)g[t][e][s]=p(u,e/8,s/8),g[t][e][s]&gt;255?g[t][e][s]=255:g[t][e][s]&lt;0&amp;&amp;(g[t][e][s]=0)}}h=[];for(let t=3*s,e=3*s+4;t&lt;e;++t)h.push(this.nodes[t].slice(3*r,3*r+4));l=y(h);for(let s=0;s&lt;8;++s)for(let r=0;r&lt;8;++r)(a=new m(l[s][r],[[[g[0][s][r],g[1][s][r],g[2][s][r],g[3][s][r]],[g[0][s][r+1],g[1][s][r+1],g[2][s][r+1],g[3][s][r+1]]],[[g[0][s+1][r],g[1][s+1][r],g[2][s+1][r],g[3][s+1][r]],[g[0][s+1][r+1],g[1][s+1][r+1],g[2][s+1][r+1],g[3][s+1][r+1]]]])).paint(t,e)}}}transform(t){if(t instanceof x)for(let e=0,s=this.nodes.length;e&lt;s;++e)for(let s=0,r=this.nodes[0].length;s&lt;r;++s)this.nodes[e][s]=this.nodes[e][s].add(t);else if(t instanceof g)for(let e=0,s=this.nodes.length;e&lt;s;++e)for(let s=0,r=this.nodes[0].length;s&lt;r;++s)this.nodes[e][s]=this.nodes[e][s].transform(t)}scale(t){for(let e=0,s=this.nodes.length;e&lt;s;++e)for(let s=0,r=this.nodes[0].length;s&lt;r;++s)this.nodes[e][s]=this.nodes[e][s].scale(t)}}document.querySelectorAll(&quot;rect,circle,ellipse,path,text&quot;).forEach((r,n)=&gt;{let o=r.getAttribute(&quot;id&quot;);o||(o=&quot;patchjs_shape&quot;+n,r.setAttribute(&quot;id&quot;,o));const i=r.style.fill.match(/^url\(\s*&quot;?\s*#([^\s&quot;]+)&quot;?\s*\)/),a=r.style.stroke.match(/^url\(\s*&quot;?\s*#([^\s&quot;]+)&quot;?\s*\)/);if(i&amp;&amp;i[1]){const a=document.getElementById(i[1]);if(a&amp;&amp;&quot;meshgradient&quot;===a.nodeName){const i=r.getBBox();let l=document.createElementNS(s,&quot;canvas&quot;);d(l,{width:i.width,height:i.height});const c=l.getContext(&quot;2d&quot;);let u=c.createImageData(i.width,i.height);const f=new b(a);&quot;objectBoundingBox&quot;===a.getAttribute(&quot;gradientUnits&quot;)&amp;&amp;f.scale(new x(i.width,i.height));const p=a.getAttribute(&quot;gradientTransform&quot;);null!=p&amp;&amp;f.transform(h(p)),&quot;userSpaceOnUse&quot;===a.getAttribute(&quot;gradientUnits&quot;)&amp;&amp;f.transform(new x(-i.x,-i.y)),f.paintMesh(u.data,l.width),c.putImageData(u,0,0);const y=document.createElementNS(t,&quot;image&quot;);d(y,{width:i.width,height:i.height,x:i.x,y:i.y});let g=l.toDataURL();y.setAttributeNS(e,&quot;xlink:href&quot;,g),r.parentNode.insertBefore(y,r),r.style.fill=&quot;none&quot;;const w=document.createElementNS(t,&quot;use&quot;);w.setAttributeNS(e,&quot;xlink:href&quot;,&quot;#&quot;+o);const m=&quot;patchjs_clip&quot;+n,M=document.createElementNS(t,&quot;clipPath&quot;);M.setAttribute(&quot;id&quot;,m),M.appendChild(w),r.parentElement.insertBefore(M,r),y.setAttribute(&quot;clip-path&quot;,&quot;url(#&quot;+m+&quot;)&quot;),u=null,l=null,g=null}}if(a&amp;&amp;a[1]){const o=document.getElementById(a[1]);if(o&amp;&amp;&quot;meshgradient&quot;===o.nodeName){const i=parseFloat(r.style.strokeWidth.slice(0,-2))*(parseFloat(r.style.strokeMiterlimit)||parseFloat(r.getAttribute(&quot;stroke-miterlimit&quot;))||1),a=r.getBBox(),l=Math.trunc(a.width+i),c=Math.trunc(a.height+i),u=Math.trunc(a.x-i/2),f=Math.trunc(a.y-i/2);let p=document.createElementNS(s,&quot;canvas&quot;);d(p,{width:l,height:c});const y=p.getContext(&quot;2d&quot;);let g=y.createImageData(l,c);const w=new b(o);&quot;objectBoundingBox&quot;===o.getAttribute(&quot;gradientUnits&quot;)&amp;&amp;w.scale(new x(l,c));const m=o.getAttribute(&quot;gradientTransform&quot;);null!=m&amp;&amp;w.transform(h(m)),&quot;userSpaceOnUse&quot;===o.getAttribute(&quot;gradientUnits&quot;)&amp;&amp;w.transform(new x(-u,-f)),w.paintMesh(g.data,p.width),y.putImageData(g,0,0);const M=document.createElementNS(t,&quot;image&quot;);d(M,{width:l,height:c,x:0,y:0});let S=p.toDataURL();M.setAttributeNS(e,&quot;xlink:href&quot;,S);const k=&quot;pattern_clip&quot;+n,A=document.createElementNS(t,&quot;pattern&quot;);d(A,{id:k,patternUnits:&quot;userSpaceOnUse&quot;,width:l,height:c,x:u,y:f}),A.appendChild(M),o.parentNode.appendChild(A),r.style.stroke=&quot;url(#&quot;+k+&quot;)&quot;,g=null,p=null,S=null}}})}();
</script></svg>
